<svg xmlns="http://www.w3.org/2000/svg" class="MuiBox-root css-387imp" id="prefix__Layer_1" data-name="Layer 1" viewBox="0 0 200 30"><path fill-rule="evenodd" clip-rule="evenodd" d="M15.5717 6.41704C14.6301 6.94914 13.8205 7.68646 13.2028 8.57427C12.9288 7.71195 12.3642 6.9713 11.6054 6.47848C10.7268 5.96677 9.71983 5.71799 8.70405 5.76168C7.8092 5.76156 6.92875 5.98695 6.14404 6.41704C5.27752 6.91074 4.54961 7.61517 4.02777 8.46505V6.26003H-0.197937V22.5963H4.16431V12.7727C4.15875 12.3152 4.24946 11.8616 4.43055 11.4415C4.58968 11.0511 4.82132 10.6944 5.11321 10.3902C5.41623 10.0702 5.78079 9.81477 6.185 9.63923C6.56805 9.49098 6.97578 9.41685 7.3865 9.42078C7.66068 9.42191 7.93281 9.46803 8.19205 9.55731C8.44191 9.64493 8.66357 9.7982 8.83375 10.001C9.03005 10.2537 9.17184 10.5442 9.25018 10.8544C9.36336 11.3235 9.41386 11.8056 9.40037 12.288V22.5963H13.7626V12.5815C13.7623 12.1715 13.8508 11.7663 14.022 11.3937C14.1927 11.0238 14.4234 10.6847 14.7047 10.3902C15.0102 10.07 15.377 9.81463 15.7833 9.63923C16.164 9.49103 16.5695 9.41688 16.978 9.42078C17.2445 9.41995 17.5095 9.46142 17.763 9.54366C18.0109 9.63145 18.2303 9.7848 18.3979 9.98739C18.5991 10.2378 18.7435 10.529 18.8212 10.8407C18.9421 11.3134 18.9995 11.8001 18.9918 12.288V22.5963H23.3609V11.6736C23.3609 9.58917 22.9399 8.08275 22.098 7.15432C21.6007 6.6692 21.0052 6.29631 20.3516 6.06079C19.6981 5.82527 19.0016 5.73259 18.3092 5.78899C17.3565 5.78758 16.4184 6.02212 15.5785 6.47166" fill="currentColor"/><path fill-rule="evenodd" clip-rule="evenodd" d="M36.9733 6.26001L33.4507 16.9915L29.621 6.26001H24.576L31.3345 21.8794L30.8361 23.2448C30.6738 23.8123 30.3627 24.3261 29.935 24.733C29.5281 25.0301 29.032 25.1794 28.5287 25.1562C27.9084 25.1565 27.2908 25.0738 26.6923 24.9105L25.9755 28.16C26.5179 28.3413 27.0753 28.4738 27.6412 28.5559C28.1731 28.6265 28.709 28.663 29.2455 28.6652C29.9934 28.6858 30.7387 28.5677 31.4437 28.317C32.0214 28.1004 32.5421 27.7549 32.966 27.3066C33.4412 26.7737 33.8346 26.1733 34.1334 25.5249C34.4679 24.8422 34.8161 24.0025 35.1915 23.0673L41.7383 6.26001H36.9733Z" fill="currentColor"/><path fill-rule="evenodd" clip-rule="evenodd" d="M48.5308 0.327655C47.8647 0.540361 47.2523 0.8943 46.7354 1.36531C46.2054 1.85944 45.7966 2.46917 45.5407 3.14707C45.2314 3.97848 45.0831 4.86118 45.1038 5.74803V6.28051H42.5507V9.69385H45.1038V22.5963H49.4661V9.67337H53.2481V6.26003H49.4661V5.63198C49.4288 5.30912 49.4716 4.98206 49.5906 4.67965C49.7097 4.37724 49.9014 4.10879 50.1487 3.89801C50.5934 3.57679 51.1294 3.40688 51.6779 3.41331C52.3181 3.41821 52.9554 3.50074 53.5757 3.65907L54.1697 0.471015C53.5965 0.287582 53.0065 0.161803 52.4084 0.0955476C51.8643 0.0344761 51.3174 0.00257262 50.77 -2.58227e-05C50.0111 -0.00733816 49.2558 0.103205 48.5308 0.327655Z" fill="currentColor"/><path fill-rule="evenodd" clip-rule="evenodd" d="M55.8217 4.19155H60.3068V0.252563H55.8217V4.19155Z" fill="currentColor"/><path fill-rule="evenodd" clip-rule="evenodd" d="M55.8832 22.5962H60.2455V6.26001H55.8832V22.5962Z" fill="currentColor"/><path fill-rule="evenodd" clip-rule="evenodd" d="M64.635 1.91144V6.26003H62.0818V9.67337H64.635V17.3056C64.635 19.3308 65.0674 20.7713 65.9321 21.6269C66.7968 22.4825 68.1212 22.9103 69.9052 22.9103C70.4509 22.9093 70.9959 22.8728 71.5368 22.8011C72.1337 22.7208 72.7229 22.5906 73.2981 22.4119L72.6768 19.1829C72.387 19.2689 72.09 19.3283 71.7894 19.3604C71.4822 19.3604 71.1886 19.4082 70.8951 19.4082C70.3996 19.426 69.9145 19.2635 69.5297 18.9508C69.3238 18.7156 69.17 18.4396 69.0782 18.1407C68.9864 17.8419 68.9589 17.5271 68.9973 17.2168V9.7075H72.7383V6.29416H68.9973V1.91144H64.635Z" fill="currentColor"/><path fill-rule="evenodd" clip-rule="evenodd" d="M81.4764 6.41702C80.5409 6.89933 79.7514 7.62289 79.1894 8.51281V6.26001H74.9569V22.5962H79.3192V12.7727C79.3127 12.3122 79.4132 11.8565 79.6127 11.4415C79.795 11.0523 80.042 10.6968 80.3432 10.3901C80.6798 10.0883 81.0653 9.8459 81.4832 9.67334C81.9439 9.49344 82.436 9.40755 82.9305 9.42076C83.5731 9.39126 84.2013 9.61702 84.6781 10.0488C85.1082 10.4652 85.3608 11.2503 85.3608 12.3972V22.5962H89.723V11.7964C89.723 9.71203 89.2679 8.18513 88.3577 7.21574C87.4474 6.24635 86.0821 5.76166 84.2617 5.76166C83.3109 5.77484 82.3761 6.00853 81.531 6.44433" fill="currentColor"/><path fill-rule="evenodd" clip-rule="evenodd" d="M97.0412 11.223C97.1935 10.8068 97.4253 10.4242 97.7239 10.0966C98.034 9.76433 98.4109 9.50144 98.8298 9.32517C99.3157 9.13069 99.8357 9.03552 100.359 9.04528C100.829 9.00596 101.302 9.06923 101.745 9.23071C102.188 9.39219 102.591 9.64804 102.926 9.98053C103.522 10.7249 103.821 11.6637 103.765 12.6156H96.7545C96.7722 12.1476 96.8692 11.6859 97.0412 11.2503V11.223ZM97.1641 6.3624C96.1898 6.73252 95.3105 7.31561 94.5904 8.06907C93.8527 8.85462 93.2856 9.78434 92.9247 10.7997C92.5107 11.9791 92.3096 13.2227 92.3308 14.4725C92.3308 17.2305 93.0135 19.3581 94.3788 20.8554C95.7441 22.3527 97.7739 23.106 100.468 23.1151C102.712 23.1151 104.421 22.6395 105.595 21.6883C106.831 20.6247 107.617 19.1313 107.793 17.5104H103.554C103.24 18.9713 102.223 19.7017 100.502 19.7017C99.981 19.7402 99.4577 19.66 98.9718 19.4673C98.4858 19.2746 98.0498 18.9743 97.6966 18.589C97.0239 17.7033 96.6724 16.6152 96.6999 15.5033H107.978V13.742C107.978 11.2981 107.349 9.35703 106.093 7.91888C104.837 6.48073 102.962 5.76165 100.468 5.76165C99.3432 5.74809 98.2253 5.9425 97.1709 6.33509" fill="currentColor"/><path fill-rule="evenodd" clip-rule="evenodd" d="M114.251 6.14398C113.458 6.35622 112.706 6.70005 112.026 7.16115C111.436 7.57023 110.946 8.10689 110.592 8.73129C110.244 9.38658 110.068 10.1194 110.08 10.8612C110.028 11.5118 110.13 12.1655 110.378 12.7692C110.626 13.373 111.013 13.9098 111.507 14.336C112.822 15.228 114.337 15.7815 115.917 15.9471L118.163 16.3225C118.758 16.3687 119.321 16.6085 119.767 17.0052C120.04 17.3029 120.189 17.6936 120.184 18.0975C120.2 18.3517 120.144 18.6054 120.024 18.8298C119.903 19.0542 119.722 19.2404 119.501 19.3672C118.802 19.6769 118.038 19.8105 117.275 19.7564C116.504 19.7776 115.737 19.6285 115.03 19.3195C114.694 19.13 114.412 18.8583 114.21 18.5299C114.008 18.2015 113.893 17.8272 113.876 17.4421H109.705C109.73 18.4015 109.993 19.3397 110.469 20.1728C110.897 20.8808 111.483 21.4792 112.183 21.9204C112.909 22.3701 113.712 22.6825 114.552 22.842C115.469 23.0254 116.402 23.1169 117.337 23.1151C119.767 23.1151 121.563 22.644 122.73 21.7498C123.292 21.3111 123.742 20.7463 124.044 20.101C124.347 19.4558 124.493 18.7483 124.471 18.036C124.483 17.344 124.394 16.6539 124.205 15.988C124.031 15.4098 123.708 14.8873 123.269 14.4725C122.765 13.9897 122.168 13.6136 121.515 13.3666C120.598 13.0295 119.648 12.787 118.682 12.643L116.634 12.3016C115.971 12.2249 115.33 12.0159 114.75 11.6872C114.586 11.5482 114.457 11.3725 114.374 11.1744C114.291 10.9763 114.256 10.7614 114.272 10.5472C114.275 10.3615 114.322 10.1791 114.408 10.0147C114.52 9.81122 114.682 9.63969 114.879 9.51635C115.156 9.34429 115.461 9.22185 115.78 9.15454C116.255 9.04962 116.741 9.0015 117.228 9.01118C118.013 8.9549 118.796 9.14588 119.467 9.55731C119.976 9.9802 120.324 10.5663 120.45 11.2162L124.341 10.7178C124.224 10.0479 124.019 9.3962 123.734 8.77907C123.448 8.1673 123.023 7.63162 122.491 7.21576C121.851 6.72152 121.121 6.3574 120.341 6.14398C119.286 5.86162 118.196 5.73061 117.105 5.75486C116.142 5.74347 115.182 5.86289 114.251 6.10984" fill="currentColor"/><path fill-rule="evenodd" clip-rule="evenodd" d="M130.478 6.144C129.685 6.35624 128.933 6.70007 128.253 7.16117C127.654 7.57538 127.159 8.122 126.806 8.75861C126.458 9.41391 126.281 10.1467 126.294 10.8885C126.247 11.5364 126.354 12.1862 126.605 12.7851C126.857 13.384 127.246 13.9153 127.741 14.336C129.056 15.2281 130.571 15.7815 132.151 15.9471L134.39 16.3226C134.985 16.3687 135.548 16.6085 135.994 17.0052C136.269 17.3022 136.42 17.6928 136.417 18.0975C136.433 18.3518 136.378 18.6054 136.257 18.8298C136.137 19.0542 135.956 19.2404 135.735 19.3673C135.034 19.677 134.267 19.8105 133.502 19.7564C132.733 19.7775 131.968 19.6284 131.263 19.3195C130.927 19.131 130.644 18.8596 130.442 18.531C130.24 18.2024 130.126 17.8275 130.11 17.4421H125.932C125.963 18.4006 126.226 19.3373 126.696 20.1728C127.126 20.8793 127.712 21.4773 128.41 21.9204C129.137 22.369 129.94 22.6813 130.779 22.842C131.698 23.0254 132.633 23.1169 133.571 23.1151C136.001 23.1151 137.796 22.6441 138.957 21.7498C139.52 21.3119 139.972 20.7473 140.275 20.102C140.579 19.4568 140.726 18.7489 140.705 18.0361C140.717 17.344 140.627 16.6539 140.438 15.9881C140.262 15.411 139.94 14.8891 139.503 14.4725C138.985 13.9971 138.377 13.6304 137.715 13.3939C136.795 13.0579 135.843 12.8155 134.875 12.6703L132.827 12.329C132.164 12.2533 131.523 12.0443 130.942 11.7146C130.778 11.5762 130.648 11.4008 130.563 11.2027C130.479 11.0045 130.443 10.7893 130.458 10.5745C130.464 10.3883 130.513 10.206 130.601 10.042C130.711 9.83937 130.871 9.66792 131.065 9.54368C131.344 9.3705 131.652 9.24801 131.973 9.18187C132.448 9.07695 132.934 9.02883 133.421 9.03851C134.211 8.97472 135.001 9.16099 135.68 9.57099C136.187 9.99457 136.532 10.5807 136.656 11.2299L140.554 10.7315C140.437 10.0616 140.233 9.40988 139.947 8.79275C139.661 8.17928 139.233 7.64319 138.698 7.22944C138.068 6.73125 137.347 6.36236 136.574 6.144C135.517 5.86127 134.426 5.73026 133.332 5.75488C132.369 5.74441 131.409 5.86381 130.478 6.10986" fill="currentColor"/><path fill-rule="evenodd" clip-rule="evenodd" d="M149.921 19.3877C149.449 19.244 149.017 18.9941 148.658 18.6573C148.244 18.2209 147.95 17.6846 147.804 17.1008C147.604 16.2674 147.515 15.4112 147.538 14.5544V14.0561C147.519 13.2721 147.618 12.4897 147.832 11.735C148.01 11.168 148.327 10.6542 148.753 10.24C149.097 9.94926 149.487 9.71848 149.907 9.55732C150.346 9.40765 150.808 9.33378 151.272 9.33886C151.741 9.33579 152.205 9.42631 152.638 9.6051C153.077 9.79648 153.459 10.1002 153.744 10.4857C154.086 10.9599 154.334 11.4952 154.474 12.0627C154.668 12.8509 154.757 13.6611 154.74 14.4725C154.755 15.2644 154.661 16.0546 154.46 16.8209C154.308 17.3923 154.048 17.9297 153.696 18.4047C153.397 18.7919 153.004 19.0972 152.556 19.2922C152.125 19.4801 151.66 19.5754 151.19 19.572C150.752 19.5734 150.316 19.516 149.893 19.4014L149.921 19.3877ZM147.456 8.41726V6.26003H143.224V28.672H147.586V20.9101C148.163 21.6908 148.945 22.2959 149.846 22.6577C150.616 22.947 151.432 23.0973 152.255 23.1014C153.277 23.1166 154.29 22.9019 155.218 22.4734C156.084 22.0594 156.845 21.4549 157.444 20.7053C158.08 19.8919 158.557 18.9654 158.85 17.9746C159.181 16.8255 159.342 15.6341 159.328 14.4384C159.328 11.7441 158.768 9.62558 157.648 8.08276C156.522 6.53993 154.836 5.76851 152.569 5.76851C151.562 5.7395 150.564 5.96745 149.67 6.43087C148.775 6.89429 148.013 7.5779 147.456 8.41726Z" fill="currentColor"/><path fill-rule="evenodd" clip-rule="evenodd" d="M166.045 19.2512C165.86 19.0945 165.713 18.8972 165.616 18.6747C165.519 18.4522 165.474 18.2103 165.485 17.9678C165.48 17.6384 165.531 17.3106 165.636 16.9984C165.757 16.6845 165.971 16.4152 166.25 16.227C166.643 15.9671 167.08 15.782 167.54 15.6808C168.266 15.5143 169.007 15.4205 169.752 15.4009L171.684 15.3054V16.1519C171.705 16.7324 171.576 17.3086 171.309 17.8244C171.071 18.2601 170.743 18.6397 170.346 18.9372C169.543 19.4823 168.585 19.7551 167.615 19.7154C167.058 19.7501 166.506 19.5856 166.059 19.2512H166.045ZM164.25 6.90173C163.629 7.3198 163.107 7.86789 162.719 8.50797C162.331 9.14806 162.087 9.86484 162.004 10.6086L165.997 10.9841C166.243 9.67336 167.233 9.01117 168.953 9.01117C169.647 8.99735 170.328 9.19499 170.906 9.57779C171.2 9.82559 171.429 10.1421 171.572 10.4993C171.715 10.8565 171.767 11.2434 171.725 11.6258V12.4382L169.643 12.5269C168.614 12.5727 167.588 12.6775 166.571 12.8409C165.624 12.9891 164.705 13.2743 163.84 13.6874C163.053 14.062 162.376 14.6334 161.874 15.3463C161.352 16.1586 161.092 17.112 161.13 18.077C161.109 18.8354 161.259 19.5888 161.567 20.282C161.825 20.8872 162.223 21.4229 162.727 21.8453C163.233 22.2522 163.816 22.5518 164.441 22.726C165.108 22.912 165.797 23.0062 166.489 23.0059C167.564 23.0517 168.632 22.8164 169.588 22.3232C170.404 21.8517 171.138 21.2498 171.759 20.5414V22.5894H175.855V12.288C175.867 11.3655 175.748 10.4461 175.5 9.55731C175.28 8.79431 174.885 8.09311 174.346 7.5093C173.761 6.91267 173.04 6.46749 172.244 6.21224C171.215 5.88872 170.141 5.7365 169.063 5.76167C167.367 5.67596 165.682 6.07117 164.202 6.90173" fill="currentColor"/><path fill-rule="evenodd" clip-rule="evenodd" d="M179.132 22.5963H183.494V0.252563H179.132V22.5963Z" fill="currentColor"/><path d="M186.826 2.47127V0.682677H187.331V0.232117H185.774V0.682677H186.286V2.47127H186.826ZM188.089 2.47127V0.983051L188.73 2.47127H188.99L189.625 0.983051V2.47127H190.137V0.232117H189.495L188.86 1.73398L188.232 0.232117H187.549V2.47127H188.089Z" fill="currentColor"/></svg>